M48
;DRILL file {KiCad 4.0.2-stable} date 01.11.2016 20:23:06
;FORMAT={2:4/ absolute / inch / suppress leading zeros}
FMAT,2
INCH,TZ
T1C0.016
T2C0.031
T3C0.032
T4C0.040
T5C0.060
T6C0.106
%
G90
G05
M72
T1
X42600Y-29700
X44200Y-29700
X44250Y-33750
X46700Y-36100
X46750Y-33750
X46800Y-35500
X48900Y-35500
X49750Y-33000
X51250Y-33000
X52500Y-30000
X54500Y-30400
X55400Y-33700
T2
X55000Y-34750
X55984Y-34750
T3
X42500Y-28500
X42500Y-34500
X43500Y-28500
X43500Y-34500
X44500Y-28500
X44500Y-34500
X45500Y-28500
X45500Y-34500
X46000Y-29500
X46500Y-28500
X46500Y-34500
X47000Y-29500
X47500Y-28500
X47500Y-34500
X48500Y-28500
X48500Y-34500
X49500Y-28500
X49500Y-34500
X50000Y-29500
X50500Y-28500
X50500Y-34500
X51000Y-29500
X51500Y-28500
X51500Y-34500
X52500Y-28500
X52500Y-34500
X53500Y-28500
X53500Y-29500
X53500Y-30500
X53500Y-31500
X53500Y-34500
T4
X54900Y-29900
X54900Y-30900
X54900Y-31900
X54900Y-32900
X55900Y-29900
X55900Y-30900
X55900Y-31900
X55900Y-32900
X58071Y-30512
X58071Y-31512
X58071Y-32512
X59071Y-30512
X59071Y-31512
X59071Y-32512
T5
X44622Y-37402
X46622Y-37402
X48622Y-37402
X50622Y-37402
X52622Y-37402
X54906Y-37402
X56906Y-37402
T6
X42520Y-37008
X58661Y-28740
T0
M30
