G04 #@! TF.FileFunction,Legend,Bot*
%FSLAX46Y46*%
G04 Gerber Fmt 4.6, Leading zero omitted, Abs format (unit mm)*
G04 Created by KiCad (PCBNEW 4.0.2-stable) date 01.11.2016 20:23:11*
%MOMM*%
G01*
G04 APERTURE LIST*
%ADD10C,0.100000*%
%ADD11C,0.150000*%
G04 APERTURE END LIST*
D10*
X144809524Y-84635714D02*
X145190476Y-84635714D01*
D11*
X146352260Y-88313260D02*
X152351740Y-88313260D01*
X146352260Y-84914740D02*
X152351740Y-84914740D01*
X119150180Y-82499200D02*
X119150180Y-83200240D01*
X119150180Y-83200240D02*
X119399100Y-83200240D01*
X121949160Y-83200240D02*
X122149820Y-83200240D01*
X122149820Y-83200240D02*
X122149820Y-82499200D01*
X122960180Y-82499200D02*
X122960180Y-83200240D01*
X122960180Y-83200240D02*
X123209100Y-83200240D01*
X125759160Y-83200240D02*
X125959820Y-83200240D01*
X125959820Y-83200240D02*
X125959820Y-82499200D01*
X126770180Y-82499200D02*
X126770180Y-83200240D01*
X126770180Y-83200240D02*
X127019100Y-83200240D01*
X129569160Y-83200240D02*
X129769820Y-83200240D01*
X129769820Y-83200240D02*
X129769820Y-82499200D01*
X106875000Y-80280000D02*
X106875000Y-82280000D01*
X109025000Y-82280000D02*
X109025000Y-80280000D01*
X113225000Y-80280000D02*
X113225000Y-82280000D01*
X115375000Y-82280000D02*
X115375000Y-80280000D01*
X110050000Y-80280000D02*
X110050000Y-82280000D01*
X112200000Y-82280000D02*
X112200000Y-80280000D01*
X116400000Y-80280000D02*
X116400000Y-82280000D01*
X118550000Y-82280000D02*
X118550000Y-80280000D01*
X146444000Y-92476000D02*
X146444000Y-89428000D01*
X146444000Y-89428000D02*
X153556000Y-89428000D01*
X153556000Y-89428000D02*
X153556000Y-92476000D01*
X146444000Y-95524000D02*
X146444000Y-96286000D01*
X146444000Y-96286000D02*
X147968000Y-98572000D01*
X147968000Y-98572000D02*
X152032000Y-98572000D01*
X152032000Y-98572000D02*
X153556000Y-96286000D01*
X153556000Y-96286000D02*
X153556000Y-95524000D01*
X130580180Y-82499200D02*
X130580180Y-83200240D01*
X130580180Y-83200240D02*
X130829100Y-83200240D01*
X133379160Y-83200240D02*
X133579820Y-83200240D01*
X133579820Y-83200240D02*
X133579820Y-82499200D01*
X153780952Y-84471429D02*
X153019047Y-84471429D01*
X153399999Y-84852381D02*
X153399999Y-84090476D01*
M02*
