G04 #@! TF.FileFunction,Copper,L2,Bot,Signal*
%FSLAX46Y46*%
G04 Gerber Fmt 4.6, Leading zero omitted, Abs format (unit mm)*
G04 Created by KiCad (PCBNEW 4.0.2-stable) date 01.11.2016 20:23:11*
%MOMM*%
G01*
G04 APERTURE LIST*
%ADD10C,0.100000*%
%ADD11O,1.501140X2.199640*%
%ADD12O,2.199640X1.501140*%
%ADD13O,1.727200X1.727200*%
%ADD14R,1.727200X1.727200*%
%ADD15R,3.500120X1.800860*%
%ADD16R,1.300000X1.300000*%
%ADD17C,1.300000*%
%ADD18C,3.810000*%
%ADD19R,3.810000X3.810000*%
%ADD20R,2.540000X2.540000*%
%ADD21C,2.540000*%
%ADD22R,0.800100X1.800860*%
%ADD23R,1.700000X2.000000*%
%ADD24R,3.657600X2.032000*%
%ADD25R,1.016000X2.032000*%
%ADD26C,0.600000*%
%ADD27C,0.250000*%
%ADD28C,0.500000*%
%ADD29C,0.254000*%
G04 APERTURE END LIST*
D10*
D11*
X127000000Y-74930000D03*
X129540000Y-74930000D03*
X107950000Y-87630000D03*
X110490000Y-87630000D03*
X113030000Y-87630000D03*
X115570000Y-87630000D03*
X118110000Y-87630000D03*
X120650000Y-87630000D03*
X123190000Y-87630000D03*
X125730000Y-87630000D03*
X128270000Y-87630000D03*
X130810000Y-87630000D03*
X133350000Y-87630000D03*
X135890000Y-87630000D03*
X135890000Y-72390000D03*
X133350000Y-72390000D03*
X130810000Y-72390000D03*
X128270000Y-72390000D03*
X125730000Y-72390000D03*
X123190000Y-72390000D03*
X120650000Y-72390000D03*
X118110000Y-72390000D03*
X115570000Y-72390000D03*
X113030000Y-72390000D03*
X110490000Y-72390000D03*
X107950000Y-72390000D03*
X119380000Y-74930000D03*
X116840000Y-74930000D03*
D12*
X135890000Y-74930000D03*
X135890000Y-77470000D03*
X135890000Y-80010000D03*
D13*
X141986000Y-75946000D03*
X139446000Y-75946000D03*
X141986000Y-78486000D03*
X139446000Y-78486000D03*
X141986000Y-81026000D03*
X139446000Y-81026000D03*
D14*
X141986000Y-83566000D03*
D13*
X139446000Y-83566000D03*
D15*
X146352260Y-86614000D03*
X152351740Y-86614000D03*
D16*
X139700000Y-88265000D03*
D17*
X142200000Y-88265000D03*
D18*
X118420000Y-95000000D03*
X123500000Y-95000000D03*
D19*
X113340000Y-95000000D03*
D18*
X128580000Y-95000000D03*
X133660000Y-95000000D03*
D20*
X139460000Y-95000000D03*
D21*
X144540000Y-95000000D03*
D22*
X119700000Y-81048860D03*
X121600000Y-81048860D03*
X120650000Y-84051140D03*
X123510000Y-81048860D03*
X125410000Y-81048860D03*
X124460000Y-84051140D03*
X127320000Y-81048860D03*
X129220000Y-81048860D03*
X128270000Y-84051140D03*
D23*
X107950000Y-83280000D03*
X107950000Y-79280000D03*
X114300000Y-83280000D03*
X114300000Y-79280000D03*
X111125000Y-83280000D03*
X111125000Y-79280000D03*
X117475000Y-83280000D03*
X117475000Y-79280000D03*
D24*
X150000000Y-97302000D03*
D25*
X150000000Y-90698000D03*
X152286000Y-90698000D03*
X147714000Y-90698000D03*
D22*
X131130000Y-81048860D03*
X133030000Y-81048860D03*
X132080000Y-84051140D03*
D14*
X147500000Y-77500000D03*
D13*
X150040000Y-77500000D03*
X147500000Y-80040000D03*
X150040000Y-80040000D03*
X147500000Y-82580000D03*
X150040000Y-82580000D03*
D26*
X133350000Y-76200000D03*
X138430000Y-77216000D03*
X118618000Y-91694000D03*
X112268000Y-75438000D03*
X108204000Y-75438000D03*
X124206000Y-90170000D03*
X118872000Y-90170000D03*
X126365000Y-83820000D03*
X112395000Y-85725000D03*
X130175000Y-83820000D03*
X118745000Y-85725000D03*
X140716000Y-85598000D03*
D27*
X152351740Y-86614000D02*
X152351740Y-79811740D01*
X152351740Y-79811740D02*
X150040000Y-77500000D01*
X150000000Y-90698000D02*
X150000000Y-88965740D01*
X150000000Y-88965740D02*
X152351740Y-86614000D01*
X150000000Y-90698000D02*
X150000000Y-90538000D01*
X115570000Y-72390000D02*
X115570000Y-72136000D01*
X115570000Y-72136000D02*
X117094000Y-70612000D01*
X148232000Y-75692000D02*
X150040000Y-77500000D01*
X150000000Y-90698000D02*
X150000000Y-91300000D01*
X150000000Y-91300000D02*
X148844000Y-92456000D01*
X148844000Y-92456000D02*
X143891000Y-92456000D01*
X143891000Y-92456000D02*
X139446000Y-88011000D01*
X139446000Y-88011000D02*
X139446000Y-83566000D01*
X117094000Y-70612000D02*
X142494000Y-70612000D01*
X142494000Y-70612000D02*
X147574000Y-75692000D01*
X147574000Y-75692000D02*
X148232000Y-75692000D01*
X129220000Y-79690000D02*
X129225000Y-79690000D01*
X133030000Y-79690000D02*
X133030000Y-81048860D01*
X132715000Y-79375000D02*
X133030000Y-79690000D01*
X129540000Y-79375000D02*
X132715000Y-79375000D01*
X129225000Y-79690000D02*
X129540000Y-79375000D01*
X125410000Y-79690000D02*
X125415000Y-79690000D01*
X129220000Y-79690000D02*
X129220000Y-81048860D01*
X128905000Y-79375000D02*
X129220000Y-79690000D01*
X125730000Y-79375000D02*
X128905000Y-79375000D01*
X125415000Y-79690000D02*
X125730000Y-79375000D01*
X121600000Y-79690000D02*
X121605000Y-79690000D01*
X125410000Y-79690000D02*
X125410000Y-81048860D01*
X125095000Y-79375000D02*
X125410000Y-79690000D01*
X121920000Y-79375000D02*
X125095000Y-79375000D01*
X121605000Y-79690000D02*
X121920000Y-79375000D01*
X121600000Y-81048860D02*
X121600000Y-79690000D01*
X121190000Y-79280000D02*
X117475000Y-79280000D01*
X121600000Y-79690000D02*
X121190000Y-79280000D01*
X134068860Y-80010000D02*
X133030000Y-81048860D01*
X135890000Y-80010000D02*
X134068860Y-80010000D01*
X147714000Y-90698000D02*
X147714000Y-87975740D01*
X147714000Y-87975740D02*
X146352260Y-86614000D01*
X142200000Y-88265000D02*
X142200000Y-83780000D01*
X142200000Y-83780000D02*
X141986000Y-83566000D01*
X142200000Y-88265000D02*
X144701260Y-88265000D01*
X144701260Y-88265000D02*
X146352260Y-86614000D01*
X146352260Y-86614000D02*
X146352260Y-86267740D01*
X146352260Y-86267740D02*
X150040000Y-82580000D01*
X111125000Y-79280000D02*
X111125000Y-73025000D01*
X111125000Y-73025000D02*
X110490000Y-72390000D01*
X107950000Y-79280000D02*
X111125000Y-79280000D01*
X111125000Y-79280000D02*
X114300000Y-79280000D01*
X114300000Y-79280000D02*
X117475000Y-79280000D01*
X152114000Y-90526000D02*
X152146000Y-90558000D01*
X152146000Y-90558000D02*
X152146000Y-91440000D01*
D28*
X152146000Y-91440000D02*
X150368000Y-93218000D01*
X150368000Y-93218000D02*
X141224000Y-93218000D01*
X141224000Y-93218000D02*
X139460000Y-95000000D01*
D27*
X113340000Y-95000000D02*
X113340000Y-95052000D01*
D28*
X113340000Y-95052000D02*
X116586000Y-98298000D01*
X116586000Y-98298000D02*
X136162000Y-98298000D01*
X136162000Y-98298000D02*
X139460000Y-95000000D01*
D27*
X141986000Y-78486000D02*
X141732000Y-78486000D01*
X141732000Y-78486000D02*
X140462000Y-77216000D01*
X140462000Y-77216000D02*
X138430000Y-77216000D01*
X141986000Y-78486000D02*
X145946000Y-78486000D01*
X145946000Y-78486000D02*
X147500000Y-80040000D01*
X129286000Y-76708000D02*
X128270000Y-75692000D01*
X132842000Y-76708000D02*
X129286000Y-76708000D01*
X133350000Y-76200000D02*
X132842000Y-76708000D01*
X128270000Y-75692000D02*
X128270000Y-72390000D01*
X148800000Y-81280000D02*
X150040000Y-80040000D01*
X146050000Y-81280000D02*
X148800000Y-81280000D01*
X144526000Y-79756000D02*
X146050000Y-81280000D01*
X140716000Y-79756000D02*
X144526000Y-79756000D01*
X139446000Y-78486000D02*
X140716000Y-79756000D01*
X106934000Y-85598000D02*
X105664000Y-84328000D01*
X110998000Y-85598000D02*
X106934000Y-85598000D01*
X113030000Y-87630000D02*
X113030000Y-90170000D01*
X114554000Y-91694000D02*
X118618000Y-91694000D01*
X113030000Y-90170000D02*
X114554000Y-91694000D01*
X113030000Y-87630000D02*
X110998000Y-85598000D01*
X113030000Y-74676000D02*
X113030000Y-72390000D01*
X112268000Y-75438000D02*
X113030000Y-74676000D01*
X105664000Y-77978000D02*
X108204000Y-75438000D01*
X105664000Y-84328000D02*
X105664000Y-77978000D01*
D28*
X118420000Y-95000000D02*
X118420000Y-94940000D01*
X118420000Y-94940000D02*
X121920000Y-91440000D01*
X121920000Y-91440000D02*
X121920000Y-85321140D01*
X121920000Y-85321140D02*
X120650000Y-84051140D01*
X123500000Y-95000000D02*
X123500000Y-93670000D01*
X123500000Y-93670000D02*
X127000000Y-90170000D01*
X127000000Y-86591140D02*
X124460000Y-84051140D01*
X127000000Y-90170000D02*
X127000000Y-86591140D01*
X128580000Y-95000000D02*
X128580000Y-91765000D01*
X129540000Y-85321140D02*
X128270000Y-84051140D01*
X129540000Y-90805000D02*
X129540000Y-85321140D01*
X128580000Y-91765000D02*
X129540000Y-90805000D01*
X129540000Y-94040000D02*
X128580000Y-95000000D01*
X133660000Y-95000000D02*
X133660000Y-94925000D01*
X133660000Y-94925000D02*
X132080000Y-93345000D01*
X132080000Y-93345000D02*
X132080000Y-84051140D01*
D27*
X132400000Y-84051140D02*
X132400000Y-84902000D01*
X120650000Y-87630000D02*
X120650000Y-86360000D01*
X119700000Y-85410000D02*
X119700000Y-81048860D01*
X120650000Y-86360000D02*
X119700000Y-85410000D01*
X120970000Y-87310000D02*
X120650000Y-87630000D01*
X107950000Y-83280000D02*
X107950000Y-83185000D01*
X107950000Y-83185000D02*
X110086140Y-81048860D01*
X110086140Y-81048860D02*
X119700000Y-81048860D01*
X107950000Y-83280000D02*
X107950000Y-83058000D01*
X123510000Y-81048860D02*
X123510000Y-85410000D01*
X123510000Y-85410000D02*
X125730000Y-87630000D01*
X124206000Y-90170000D02*
X125730000Y-88646000D01*
X125730000Y-88646000D02*
X125730000Y-87630000D01*
X114300000Y-83280000D02*
X114300000Y-89662000D01*
X114808000Y-90170000D02*
X118872000Y-90170000D01*
X114300000Y-89662000D02*
X114808000Y-90170000D01*
X111125000Y-83280000D02*
X111125000Y-84455000D01*
X127320000Y-82865000D02*
X127320000Y-81048860D01*
X126365000Y-83820000D02*
X127320000Y-82865000D01*
X111125000Y-84455000D02*
X112395000Y-85725000D01*
X127320000Y-81048860D02*
X127320000Y-85410000D01*
X128270000Y-86360000D02*
X128270000Y-87630000D01*
X127320000Y-85410000D02*
X128270000Y-86360000D01*
X128590000Y-87310000D02*
X128270000Y-87630000D01*
X117475000Y-83280000D02*
X117475000Y-84455000D01*
X131130000Y-82865000D02*
X131130000Y-81048860D01*
X130175000Y-83820000D02*
X131130000Y-82865000D01*
X117475000Y-84455000D02*
X118745000Y-85725000D01*
X141986000Y-81026000D02*
X141478000Y-81026000D01*
X141478000Y-81026000D02*
X140716000Y-81788000D01*
X140716000Y-81788000D02*
X140716000Y-85598000D01*
X137668000Y-79248000D02*
X139446000Y-81026000D01*
X137668000Y-74168000D02*
X137668000Y-79248000D01*
X135890000Y-72390000D02*
X137668000Y-74168000D01*
X127000000Y-74930000D02*
X127000000Y-75184000D01*
X127000000Y-75184000D02*
X129286000Y-77470000D01*
X129286000Y-77470000D02*
X135890000Y-77470000D01*
X129540000Y-74930000D02*
X135890000Y-74930000D01*
D29*
G36*
X106396599Y-86135401D02*
X106643160Y-86300148D01*
X106912340Y-86353692D01*
X106669900Y-86716528D01*
X106564430Y-87246763D01*
X106564430Y-88013237D01*
X106669900Y-88543472D01*
X106970254Y-88992983D01*
X107419765Y-89293337D01*
X107950000Y-89398807D01*
X108480235Y-89293337D01*
X108929746Y-88992983D01*
X109220000Y-88558588D01*
X109510254Y-88992983D01*
X109959765Y-89293337D01*
X110490000Y-89398807D01*
X111020235Y-89293337D01*
X111469746Y-88992983D01*
X111760000Y-88558588D01*
X112050254Y-88992983D01*
X112270000Y-89139813D01*
X112270000Y-90170000D01*
X112327852Y-90460839D01*
X112492599Y-90707401D01*
X114016599Y-92231401D01*
X114263160Y-92396148D01*
X114284371Y-92400367D01*
X114521624Y-92447560D01*
X111435000Y-92447560D01*
X111199683Y-92491838D01*
X110983559Y-92630910D01*
X110838569Y-92843110D01*
X110787560Y-93095000D01*
X110787560Y-96905000D01*
X110831838Y-97140317D01*
X110970910Y-97356441D01*
X111183110Y-97501431D01*
X111435000Y-97552440D01*
X114588861Y-97552440D01*
X115960208Y-98923787D01*
X115960210Y-98923790D01*
X116247325Y-99115633D01*
X116586000Y-99183001D01*
X116586005Y-99183000D01*
X136161995Y-99183000D01*
X136162000Y-99183001D01*
X136449175Y-99125877D01*
X136500675Y-99115633D01*
X136787790Y-98923790D01*
X136787791Y-98923789D01*
X138794139Y-96917440D01*
X140730000Y-96917440D01*
X140965317Y-96873162D01*
X141181441Y-96734090D01*
X141326431Y-96521890D01*
X141361689Y-96347777D01*
X143371828Y-96347777D01*
X143503520Y-96642657D01*
X144211036Y-96914261D01*
X144968632Y-96894436D01*
X145576480Y-96642657D01*
X145708172Y-96347777D01*
X144540000Y-95179605D01*
X143371828Y-96347777D01*
X141361689Y-96347777D01*
X141377440Y-96270000D01*
X141377440Y-94320975D01*
X141593213Y-94103000D01*
X142843799Y-94103000D01*
X142625739Y-94671036D01*
X142645564Y-95428632D01*
X142897343Y-96036480D01*
X143192223Y-96168172D01*
X144360395Y-95000000D01*
X144346253Y-94985858D01*
X144525858Y-94806253D01*
X144540000Y-94820395D01*
X144554143Y-94806253D01*
X144733748Y-94985858D01*
X144719605Y-95000000D01*
X145887777Y-96168172D01*
X146182657Y-96036480D01*
X146454261Y-95328964D01*
X146434436Y-94571368D01*
X146240432Y-94103000D01*
X150367995Y-94103000D01*
X150368000Y-94103001D01*
X150650484Y-94046810D01*
X150706675Y-94035633D01*
X150993790Y-93843790D01*
X152476139Y-92361440D01*
X152794000Y-92361440D01*
X153029317Y-92317162D01*
X153245441Y-92178090D01*
X153390431Y-91965890D01*
X153441440Y-91714000D01*
X153441440Y-89682000D01*
X153397162Y-89446683D01*
X153258090Y-89230559D01*
X153045890Y-89085569D01*
X152794000Y-89034560D01*
X151778000Y-89034560D01*
X151542683Y-89078838D01*
X151326559Y-89217910D01*
X151181569Y-89430110D01*
X151143457Y-89618314D01*
X151111162Y-89446683D01*
X150972090Y-89230559D01*
X150875785Y-89164757D01*
X151878672Y-88161870D01*
X154101800Y-88161870D01*
X154290000Y-88126458D01*
X154290000Y-94930069D01*
X153950592Y-96636390D01*
X153023654Y-98023651D01*
X152459513Y-98400598D01*
X152476240Y-98318000D01*
X152476240Y-96286000D01*
X152431962Y-96050683D01*
X152292890Y-95834559D01*
X152080690Y-95689569D01*
X151828800Y-95638560D01*
X148171200Y-95638560D01*
X147935883Y-95682838D01*
X147719759Y-95821910D01*
X147574769Y-96034110D01*
X147523760Y-96286000D01*
X147523760Y-98318000D01*
X147568038Y-98553317D01*
X147707110Y-98769441D01*
X147919310Y-98914431D01*
X148171200Y-98965440D01*
X151561744Y-98965440D01*
X149930069Y-99290000D01*
X110069931Y-99290000D01*
X108363610Y-98950592D01*
X106976349Y-98023654D01*
X106049408Y-96636390D01*
X105710000Y-94930069D01*
X105710000Y-94393109D01*
X106014657Y-94393109D01*
X106316218Y-95122943D01*
X106874120Y-95681819D01*
X107603427Y-95984654D01*
X108393109Y-95985343D01*
X109122943Y-95683782D01*
X109681819Y-95125880D01*
X109984654Y-94396573D01*
X109985343Y-93606891D01*
X109683782Y-92877057D01*
X109125880Y-92318181D01*
X108396573Y-92015346D01*
X107606891Y-92014657D01*
X106877057Y-92316218D01*
X106318181Y-92874120D01*
X106015346Y-93603427D01*
X106014657Y-94393109D01*
X105710000Y-94393109D01*
X105710000Y-85448802D01*
X106396599Y-86135401D01*
X106396599Y-86135401D01*
G37*
X106396599Y-86135401D02*
X106643160Y-86300148D01*
X106912340Y-86353692D01*
X106669900Y-86716528D01*
X106564430Y-87246763D01*
X106564430Y-88013237D01*
X106669900Y-88543472D01*
X106970254Y-88992983D01*
X107419765Y-89293337D01*
X107950000Y-89398807D01*
X108480235Y-89293337D01*
X108929746Y-88992983D01*
X109220000Y-88558588D01*
X109510254Y-88992983D01*
X109959765Y-89293337D01*
X110490000Y-89398807D01*
X111020235Y-89293337D01*
X111469746Y-88992983D01*
X111760000Y-88558588D01*
X112050254Y-88992983D01*
X112270000Y-89139813D01*
X112270000Y-90170000D01*
X112327852Y-90460839D01*
X112492599Y-90707401D01*
X114016599Y-92231401D01*
X114263160Y-92396148D01*
X114284371Y-92400367D01*
X114521624Y-92447560D01*
X111435000Y-92447560D01*
X111199683Y-92491838D01*
X110983559Y-92630910D01*
X110838569Y-92843110D01*
X110787560Y-93095000D01*
X110787560Y-96905000D01*
X110831838Y-97140317D01*
X110970910Y-97356441D01*
X111183110Y-97501431D01*
X111435000Y-97552440D01*
X114588861Y-97552440D01*
X115960208Y-98923787D01*
X115960210Y-98923790D01*
X116247325Y-99115633D01*
X116586000Y-99183001D01*
X116586005Y-99183000D01*
X136161995Y-99183000D01*
X136162000Y-99183001D01*
X136449175Y-99125877D01*
X136500675Y-99115633D01*
X136787790Y-98923790D01*
X136787791Y-98923789D01*
X138794139Y-96917440D01*
X140730000Y-96917440D01*
X140965317Y-96873162D01*
X141181441Y-96734090D01*
X141326431Y-96521890D01*
X141361689Y-96347777D01*
X143371828Y-96347777D01*
X143503520Y-96642657D01*
X144211036Y-96914261D01*
X144968632Y-96894436D01*
X145576480Y-96642657D01*
X145708172Y-96347777D01*
X144540000Y-95179605D01*
X143371828Y-96347777D01*
X141361689Y-96347777D01*
X141377440Y-96270000D01*
X141377440Y-94320975D01*
X141593213Y-94103000D01*
X142843799Y-94103000D01*
X142625739Y-94671036D01*
X142645564Y-95428632D01*
X142897343Y-96036480D01*
X143192223Y-96168172D01*
X144360395Y-95000000D01*
X144346253Y-94985858D01*
X144525858Y-94806253D01*
X144540000Y-94820395D01*
X144554143Y-94806253D01*
X144733748Y-94985858D01*
X144719605Y-95000000D01*
X145887777Y-96168172D01*
X146182657Y-96036480D01*
X146454261Y-95328964D01*
X146434436Y-94571368D01*
X146240432Y-94103000D01*
X150367995Y-94103000D01*
X150368000Y-94103001D01*
X150650484Y-94046810D01*
X150706675Y-94035633D01*
X150993790Y-93843790D01*
X152476139Y-92361440D01*
X152794000Y-92361440D01*
X153029317Y-92317162D01*
X153245441Y-92178090D01*
X153390431Y-91965890D01*
X153441440Y-91714000D01*
X153441440Y-89682000D01*
X153397162Y-89446683D01*
X153258090Y-89230559D01*
X153045890Y-89085569D01*
X152794000Y-89034560D01*
X151778000Y-89034560D01*
X151542683Y-89078838D01*
X151326559Y-89217910D01*
X151181569Y-89430110D01*
X151143457Y-89618314D01*
X151111162Y-89446683D01*
X150972090Y-89230559D01*
X150875785Y-89164757D01*
X151878672Y-88161870D01*
X154101800Y-88161870D01*
X154290000Y-88126458D01*
X154290000Y-94930069D01*
X153950592Y-96636390D01*
X153023654Y-98023651D01*
X152459513Y-98400598D01*
X152476240Y-98318000D01*
X152476240Y-96286000D01*
X152431962Y-96050683D01*
X152292890Y-95834559D01*
X152080690Y-95689569D01*
X151828800Y-95638560D01*
X148171200Y-95638560D01*
X147935883Y-95682838D01*
X147719759Y-95821910D01*
X147574769Y-96034110D01*
X147523760Y-96286000D01*
X147523760Y-98318000D01*
X147568038Y-98553317D01*
X147707110Y-98769441D01*
X147919310Y-98914431D01*
X148171200Y-98965440D01*
X151561744Y-98965440D01*
X149930069Y-99290000D01*
X110069931Y-99290000D01*
X108363610Y-98950592D01*
X106976349Y-98023654D01*
X106049408Y-96636390D01*
X105710000Y-94930069D01*
X105710000Y-94393109D01*
X106014657Y-94393109D01*
X106316218Y-95122943D01*
X106874120Y-95681819D01*
X107603427Y-95984654D01*
X108393109Y-95985343D01*
X109122943Y-95683782D01*
X109681819Y-95125880D01*
X109984654Y-94396573D01*
X109985343Y-93606891D01*
X109683782Y-92877057D01*
X109125880Y-92318181D01*
X108396573Y-92015346D01*
X107606891Y-92014657D01*
X106877057Y-92316218D01*
X106318181Y-92874120D01*
X106015346Y-93603427D01*
X106014657Y-94393109D01*
X105710000Y-94393109D01*
X105710000Y-85448802D01*
X106396599Y-86135401D01*
G36*
X106564430Y-72773237D02*
X106669900Y-73303472D01*
X106970254Y-73752983D01*
X107419765Y-74053337D01*
X107950000Y-74158807D01*
X108480235Y-74053337D01*
X108929746Y-73752983D01*
X109230100Y-73303472D01*
X109231601Y-73295928D01*
X109258501Y-73386817D01*
X109600056Y-73808798D01*
X110077097Y-74067950D01*
X110148725Y-74082133D01*
X110363000Y-73959479D01*
X110363000Y-72517000D01*
X110343000Y-72517000D01*
X110343000Y-72263000D01*
X110363000Y-72263000D01*
X110363000Y-72243000D01*
X110617000Y-72243000D01*
X110617000Y-72263000D01*
X110637000Y-72263000D01*
X110637000Y-72517000D01*
X110617000Y-72517000D01*
X110617000Y-73959479D01*
X110831275Y-74082133D01*
X110902903Y-74067950D01*
X111379944Y-73808798D01*
X111721499Y-73386817D01*
X111748399Y-73295928D01*
X111749900Y-73303472D01*
X112050254Y-73752983D01*
X112270000Y-73899813D01*
X112270000Y-74361198D01*
X112128320Y-74502878D01*
X112082833Y-74502838D01*
X111739057Y-74644883D01*
X111475808Y-74907673D01*
X111333162Y-75251201D01*
X111332838Y-75623167D01*
X111474883Y-75966943D01*
X111737673Y-76230192D01*
X112081201Y-76372838D01*
X112453167Y-76373162D01*
X112796943Y-76231117D01*
X113060192Y-75968327D01*
X113202838Y-75624799D01*
X113202879Y-75577923D01*
X113567401Y-75213401D01*
X113732148Y-74966839D01*
X113790000Y-74676000D01*
X113790000Y-73899813D01*
X114009746Y-73752983D01*
X114300000Y-73318588D01*
X114590254Y-73752983D01*
X115039765Y-74053337D01*
X115533061Y-74151459D01*
X115454430Y-74546763D01*
X115454430Y-75313237D01*
X115559900Y-75843472D01*
X115860254Y-76292983D01*
X116309765Y-76593337D01*
X116840000Y-76698807D01*
X117370235Y-76593337D01*
X117819746Y-76292983D01*
X118110000Y-75858588D01*
X118400254Y-76292983D01*
X118849765Y-76593337D01*
X119380000Y-76698807D01*
X119910235Y-76593337D01*
X120359746Y-76292983D01*
X120660100Y-75843472D01*
X120765570Y-75313237D01*
X120765570Y-74546763D01*
X120686939Y-74151459D01*
X121180235Y-74053337D01*
X121629746Y-73752983D01*
X121920000Y-73318588D01*
X122210254Y-73752983D01*
X122659765Y-74053337D01*
X123190000Y-74158807D01*
X123720235Y-74053337D01*
X124169746Y-73752983D01*
X124460000Y-73318588D01*
X124750254Y-73752983D01*
X125199765Y-74053337D01*
X125693061Y-74151459D01*
X125614430Y-74546763D01*
X125614430Y-75313237D01*
X125719900Y-75843472D01*
X126020254Y-76292983D01*
X126469765Y-76593337D01*
X127000000Y-76698807D01*
X127367004Y-76625806D01*
X128748599Y-78007401D01*
X128995160Y-78172148D01*
X129286000Y-78230000D01*
X134380187Y-78230000D01*
X134527017Y-78449746D01*
X134976528Y-78750100D01*
X134984072Y-78751601D01*
X134893183Y-78778501D01*
X134471202Y-79120056D01*
X134212050Y-79597097D01*
X134197867Y-79668725D01*
X134320521Y-79883000D01*
X135763000Y-79883000D01*
X135763000Y-79863000D01*
X136017000Y-79863000D01*
X136017000Y-79883000D01*
X136037000Y-79883000D01*
X136037000Y-80137000D01*
X136017000Y-80137000D01*
X136017000Y-81395570D01*
X136366250Y-81395570D01*
X136886817Y-81241499D01*
X137308798Y-80899944D01*
X137567950Y-80422903D01*
X137582133Y-80351275D01*
X137459480Y-80137002D01*
X137482200Y-80137002D01*
X138012842Y-80667644D01*
X137947400Y-80996641D01*
X137947400Y-81055359D01*
X138061474Y-81628848D01*
X138386330Y-82115029D01*
X138657172Y-82296000D01*
X138386330Y-82476971D01*
X138061474Y-82963152D01*
X137947400Y-83536641D01*
X137947400Y-83595359D01*
X138061474Y-84168848D01*
X138386330Y-84655029D01*
X138686000Y-84855262D01*
X138686000Y-87094643D01*
X138598559Y-87150910D01*
X138453569Y-87363110D01*
X138402560Y-87615000D01*
X138402560Y-88915000D01*
X138446838Y-89150317D01*
X138585910Y-89366441D01*
X138798110Y-89511431D01*
X139050000Y-89562440D01*
X139922638Y-89562440D01*
X142693198Y-92333000D01*
X141224000Y-92333000D01*
X141221756Y-92333446D01*
X141219508Y-92333011D01*
X141052425Y-92367129D01*
X140885325Y-92400367D01*
X140883423Y-92401638D01*
X140881180Y-92402096D01*
X140739986Y-92497479D01*
X140598210Y-92592210D01*
X140596937Y-92594115D01*
X140595042Y-92595395D01*
X140112798Y-93082560D01*
X138190000Y-93082560D01*
X137954683Y-93126838D01*
X137738559Y-93265910D01*
X137593569Y-93478110D01*
X137542560Y-93730000D01*
X137542560Y-95665861D01*
X135795420Y-97413000D01*
X134471449Y-97413000D01*
X135096915Y-97154563D01*
X135812052Y-96440673D01*
X136199559Y-95507454D01*
X136200440Y-94496979D01*
X135814563Y-93563085D01*
X135100673Y-92847948D01*
X134167454Y-92460441D01*
X133156979Y-92459560D01*
X132965000Y-92538884D01*
X132965000Y-89322226D01*
X133350000Y-89398807D01*
X133880235Y-89293337D01*
X134329746Y-88992983D01*
X134620000Y-88558588D01*
X134910254Y-88992983D01*
X135359765Y-89293337D01*
X135890000Y-89398807D01*
X136420235Y-89293337D01*
X136869746Y-88992983D01*
X137170100Y-88543472D01*
X137275570Y-88013237D01*
X137275570Y-87246763D01*
X137170100Y-86716528D01*
X136869746Y-86267017D01*
X136420235Y-85966663D01*
X135890000Y-85861193D01*
X135359765Y-85966663D01*
X134910254Y-86267017D01*
X134620000Y-86701412D01*
X134329746Y-86267017D01*
X133880235Y-85966663D01*
X133350000Y-85861193D01*
X132965000Y-85937774D01*
X132965000Y-85398096D01*
X133102148Y-85192839D01*
X133160000Y-84902000D01*
X133160000Y-84051140D01*
X133127490Y-83887703D01*
X133127490Y-83150710D01*
X133083212Y-82915393D01*
X132944140Y-82699269D01*
X132757082Y-82571458D01*
X132903000Y-82425540D01*
X132903000Y-81175860D01*
X133157000Y-81175860D01*
X133157000Y-82425540D01*
X133315750Y-82584290D01*
X133556359Y-82584290D01*
X133789748Y-82487617D01*
X133968377Y-82308989D01*
X134065050Y-82075600D01*
X134065050Y-81334610D01*
X133906300Y-81175860D01*
X133157000Y-81175860D01*
X132903000Y-81175860D01*
X132883000Y-81175860D01*
X132883000Y-80921860D01*
X132903000Y-80921860D01*
X132903000Y-79672180D01*
X133157000Y-79672180D01*
X133157000Y-80921860D01*
X133906300Y-80921860D01*
X134065050Y-80763110D01*
X134065050Y-80351275D01*
X134197867Y-80351275D01*
X134212050Y-80422903D01*
X134471202Y-80899944D01*
X134893183Y-81241499D01*
X135413750Y-81395570D01*
X135763000Y-81395570D01*
X135763000Y-80137000D01*
X134320521Y-80137000D01*
X134197867Y-80351275D01*
X134065050Y-80351275D01*
X134065050Y-80022120D01*
X133968377Y-79788731D01*
X133789748Y-79610103D01*
X133556359Y-79513430D01*
X133315750Y-79513430D01*
X133157000Y-79672180D01*
X132903000Y-79672180D01*
X132744250Y-79513430D01*
X132503641Y-79513430D01*
X132270252Y-79610103D01*
X132091623Y-79788731D01*
X132076566Y-79825082D01*
X131994140Y-79696989D01*
X131781940Y-79551999D01*
X131530050Y-79500990D01*
X130729950Y-79500990D01*
X130494633Y-79545268D01*
X130278509Y-79684340D01*
X130176797Y-79833201D01*
X130158377Y-79788731D01*
X129979748Y-79610103D01*
X129746359Y-79513430D01*
X129505750Y-79513430D01*
X129347000Y-79672180D01*
X129347000Y-80921860D01*
X129367000Y-80921860D01*
X129367000Y-81175860D01*
X129347000Y-81175860D01*
X129347000Y-82425540D01*
X129505750Y-82584290D01*
X129746359Y-82584290D01*
X129979748Y-82487617D01*
X130158377Y-82308989D01*
X130177350Y-82263183D01*
X130265860Y-82400731D01*
X130370000Y-82471887D01*
X130370000Y-82550198D01*
X130035320Y-82884878D01*
X129989833Y-82884838D01*
X129646057Y-83026883D01*
X129382808Y-83289673D01*
X129317490Y-83446975D01*
X129317490Y-83150710D01*
X129273212Y-82915393D01*
X129134140Y-82699269D01*
X128947082Y-82571458D01*
X129093000Y-82425540D01*
X129093000Y-81175860D01*
X129073000Y-81175860D01*
X129073000Y-80921860D01*
X129093000Y-80921860D01*
X129093000Y-79672180D01*
X128934250Y-79513430D01*
X128693641Y-79513430D01*
X128460252Y-79610103D01*
X128281623Y-79788731D01*
X128266566Y-79825082D01*
X128184140Y-79696989D01*
X127971940Y-79551999D01*
X127720050Y-79500990D01*
X126919950Y-79500990D01*
X126684633Y-79545268D01*
X126468509Y-79684340D01*
X126366797Y-79833201D01*
X126348377Y-79788731D01*
X126169748Y-79610103D01*
X125936359Y-79513430D01*
X125695750Y-79513430D01*
X125537000Y-79672180D01*
X125537000Y-80921860D01*
X125557000Y-80921860D01*
X125557000Y-81175860D01*
X125537000Y-81175860D01*
X125537000Y-82425540D01*
X125695750Y-82584290D01*
X125936359Y-82584290D01*
X126169748Y-82487617D01*
X126348377Y-82308989D01*
X126367350Y-82263183D01*
X126455860Y-82400731D01*
X126560000Y-82471887D01*
X126560000Y-82550198D01*
X126225320Y-82884878D01*
X126179833Y-82884838D01*
X125836057Y-83026883D01*
X125572808Y-83289673D01*
X125507490Y-83446975D01*
X125507490Y-83150710D01*
X125463212Y-82915393D01*
X125324140Y-82699269D01*
X125137082Y-82571458D01*
X125283000Y-82425540D01*
X125283000Y-81175860D01*
X125263000Y-81175860D01*
X125263000Y-80921860D01*
X125283000Y-80921860D01*
X125283000Y-79672180D01*
X125124250Y-79513430D01*
X124883641Y-79513430D01*
X124650252Y-79610103D01*
X124471623Y-79788731D01*
X124456566Y-79825082D01*
X124374140Y-79696989D01*
X124161940Y-79551999D01*
X123910050Y-79500990D01*
X123109950Y-79500990D01*
X122874633Y-79545268D01*
X122658509Y-79684340D01*
X122556797Y-79833201D01*
X122538377Y-79788731D01*
X122359748Y-79610103D01*
X122126359Y-79513430D01*
X121885750Y-79513430D01*
X121727000Y-79672180D01*
X121727000Y-80921860D01*
X121747000Y-80921860D01*
X121747000Y-81175860D01*
X121727000Y-81175860D01*
X121727000Y-82425540D01*
X121885750Y-82584290D01*
X122126359Y-82584290D01*
X122359748Y-82487617D01*
X122538377Y-82308989D01*
X122557350Y-82263183D01*
X122645860Y-82400731D01*
X122750000Y-82471887D01*
X122750000Y-85044637D01*
X122737633Y-84982465D01*
X122703835Y-84931883D01*
X122545790Y-84695350D01*
X122545787Y-84695348D01*
X121697490Y-83847050D01*
X121697490Y-83150710D01*
X121653212Y-82915393D01*
X121514140Y-82699269D01*
X121327082Y-82571458D01*
X121473000Y-82425540D01*
X121473000Y-81175860D01*
X121453000Y-81175860D01*
X121453000Y-80921860D01*
X121473000Y-80921860D01*
X121473000Y-79672180D01*
X121314250Y-79513430D01*
X121073641Y-79513430D01*
X120840252Y-79610103D01*
X120661623Y-79788731D01*
X120646566Y-79825082D01*
X120564140Y-79696989D01*
X120351940Y-79551999D01*
X120100050Y-79500990D01*
X119299950Y-79500990D01*
X119064633Y-79545268D01*
X118960000Y-79612597D01*
X118960000Y-79565750D01*
X118801250Y-79407000D01*
X117602000Y-79407000D01*
X117602000Y-79427000D01*
X117348000Y-79427000D01*
X117348000Y-79407000D01*
X116148750Y-79407000D01*
X115990000Y-79565750D01*
X115990000Y-80288860D01*
X115785000Y-80288860D01*
X115785000Y-79565750D01*
X115626250Y-79407000D01*
X114427000Y-79407000D01*
X114427000Y-79427000D01*
X114173000Y-79427000D01*
X114173000Y-79407000D01*
X112973750Y-79407000D01*
X112815000Y-79565750D01*
X112815000Y-80288860D01*
X112610000Y-80288860D01*
X112610000Y-79565750D01*
X112451250Y-79407000D01*
X111252000Y-79407000D01*
X111252000Y-79427000D01*
X110998000Y-79427000D01*
X110998000Y-79407000D01*
X109798750Y-79407000D01*
X109640000Y-79565750D01*
X109640000Y-80406309D01*
X109654330Y-80440905D01*
X109548739Y-80511459D01*
X108427638Y-81632560D01*
X107100000Y-81632560D01*
X106864683Y-81676838D01*
X106648559Y-81815910D01*
X106503569Y-82028110D01*
X106452560Y-82280000D01*
X106452560Y-84041758D01*
X106424000Y-84013198D01*
X106424000Y-79565750D01*
X106465000Y-79565750D01*
X106465000Y-80406309D01*
X106561673Y-80639698D01*
X106740301Y-80818327D01*
X106973690Y-80915000D01*
X107664250Y-80915000D01*
X107823000Y-80756250D01*
X107823000Y-79407000D01*
X108077000Y-79407000D01*
X108077000Y-80756250D01*
X108235750Y-80915000D01*
X108926310Y-80915000D01*
X109159699Y-80818327D01*
X109338327Y-80639698D01*
X109435000Y-80406309D01*
X109435000Y-79565750D01*
X109276250Y-79407000D01*
X108077000Y-79407000D01*
X107823000Y-79407000D01*
X106623750Y-79407000D01*
X106465000Y-79565750D01*
X106424000Y-79565750D01*
X106424000Y-78292802D01*
X106465000Y-78251802D01*
X106465000Y-78994250D01*
X106623750Y-79153000D01*
X107823000Y-79153000D01*
X107823000Y-77803750D01*
X108077000Y-77803750D01*
X108077000Y-79153000D01*
X109276250Y-79153000D01*
X109435000Y-78994250D01*
X109435000Y-78153691D01*
X109640000Y-78153691D01*
X109640000Y-78994250D01*
X109798750Y-79153000D01*
X110998000Y-79153000D01*
X110998000Y-77803750D01*
X111252000Y-77803750D01*
X111252000Y-79153000D01*
X112451250Y-79153000D01*
X112610000Y-78994250D01*
X112610000Y-78153691D01*
X112815000Y-78153691D01*
X112815000Y-78994250D01*
X112973750Y-79153000D01*
X114173000Y-79153000D01*
X114173000Y-77803750D01*
X114427000Y-77803750D01*
X114427000Y-79153000D01*
X115626250Y-79153000D01*
X115785000Y-78994250D01*
X115785000Y-78153691D01*
X115990000Y-78153691D01*
X115990000Y-78994250D01*
X116148750Y-79153000D01*
X117348000Y-79153000D01*
X117348000Y-77803750D01*
X117602000Y-77803750D01*
X117602000Y-79153000D01*
X118801250Y-79153000D01*
X118960000Y-78994250D01*
X118960000Y-78153691D01*
X118863327Y-77920302D01*
X118684699Y-77741673D01*
X118451310Y-77645000D01*
X117760750Y-77645000D01*
X117602000Y-77803750D01*
X117348000Y-77803750D01*
X117189250Y-77645000D01*
X116498690Y-77645000D01*
X116265301Y-77741673D01*
X116086673Y-77920302D01*
X115990000Y-78153691D01*
X115785000Y-78153691D01*
X115688327Y-77920302D01*
X115509699Y-77741673D01*
X115276310Y-77645000D01*
X114585750Y-77645000D01*
X114427000Y-77803750D01*
X114173000Y-77803750D01*
X114014250Y-77645000D01*
X113323690Y-77645000D01*
X113090301Y-77741673D01*
X112911673Y-77920302D01*
X112815000Y-78153691D01*
X112610000Y-78153691D01*
X112513327Y-77920302D01*
X112334699Y-77741673D01*
X112101310Y-77645000D01*
X111410750Y-77645000D01*
X111252000Y-77803750D01*
X110998000Y-77803750D01*
X110839250Y-77645000D01*
X110148690Y-77645000D01*
X109915301Y-77741673D01*
X109736673Y-77920302D01*
X109640000Y-78153691D01*
X109435000Y-78153691D01*
X109338327Y-77920302D01*
X109159699Y-77741673D01*
X108926310Y-77645000D01*
X108235750Y-77645000D01*
X108077000Y-77803750D01*
X107823000Y-77803750D01*
X107664250Y-77645000D01*
X107071802Y-77645000D01*
X108343680Y-76373122D01*
X108389167Y-76373162D01*
X108732943Y-76231117D01*
X108996192Y-75968327D01*
X109138838Y-75624799D01*
X109139162Y-75252833D01*
X108997117Y-74909057D01*
X108734327Y-74645808D01*
X108390799Y-74503162D01*
X108018833Y-74502838D01*
X107675057Y-74644883D01*
X107411808Y-74907673D01*
X107269162Y-75251201D01*
X107269121Y-75298077D01*
X105710000Y-76857198D01*
X105710000Y-74569931D01*
X106011347Y-73054955D01*
X106564430Y-72227206D01*
X106564430Y-72773237D01*
X106564430Y-72773237D01*
G37*
X106564430Y-72773237D02*
X106669900Y-73303472D01*
X106970254Y-73752983D01*
X107419765Y-74053337D01*
X107950000Y-74158807D01*
X108480235Y-74053337D01*
X108929746Y-73752983D01*
X109230100Y-73303472D01*
X109231601Y-73295928D01*
X109258501Y-73386817D01*
X109600056Y-73808798D01*
X110077097Y-74067950D01*
X110148725Y-74082133D01*
X110363000Y-73959479D01*
X110363000Y-72517000D01*
X110343000Y-72517000D01*
X110343000Y-72263000D01*
X110363000Y-72263000D01*
X110363000Y-72243000D01*
X110617000Y-72243000D01*
X110617000Y-72263000D01*
X110637000Y-72263000D01*
X110637000Y-72517000D01*
X110617000Y-72517000D01*
X110617000Y-73959479D01*
X110831275Y-74082133D01*
X110902903Y-74067950D01*
X111379944Y-73808798D01*
X111721499Y-73386817D01*
X111748399Y-73295928D01*
X111749900Y-73303472D01*
X112050254Y-73752983D01*
X112270000Y-73899813D01*
X112270000Y-74361198D01*
X112128320Y-74502878D01*
X112082833Y-74502838D01*
X111739057Y-74644883D01*
X111475808Y-74907673D01*
X111333162Y-75251201D01*
X111332838Y-75623167D01*
X111474883Y-75966943D01*
X111737673Y-76230192D01*
X112081201Y-76372838D01*
X112453167Y-76373162D01*
X112796943Y-76231117D01*
X113060192Y-75968327D01*
X113202838Y-75624799D01*
X113202879Y-75577923D01*
X113567401Y-75213401D01*
X113732148Y-74966839D01*
X113790000Y-74676000D01*
X113790000Y-73899813D01*
X114009746Y-73752983D01*
X114300000Y-73318588D01*
X114590254Y-73752983D01*
X115039765Y-74053337D01*
X115533061Y-74151459D01*
X115454430Y-74546763D01*
X115454430Y-75313237D01*
X115559900Y-75843472D01*
X115860254Y-76292983D01*
X116309765Y-76593337D01*
X116840000Y-76698807D01*
X117370235Y-76593337D01*
X117819746Y-76292983D01*
X118110000Y-75858588D01*
X118400254Y-76292983D01*
X118849765Y-76593337D01*
X119380000Y-76698807D01*
X119910235Y-76593337D01*
X120359746Y-76292983D01*
X120660100Y-75843472D01*
X120765570Y-75313237D01*
X120765570Y-74546763D01*
X120686939Y-74151459D01*
X121180235Y-74053337D01*
X121629746Y-73752983D01*
X121920000Y-73318588D01*
X122210254Y-73752983D01*
X122659765Y-74053337D01*
X123190000Y-74158807D01*
X123720235Y-74053337D01*
X124169746Y-73752983D01*
X124460000Y-73318588D01*
X124750254Y-73752983D01*
X125199765Y-74053337D01*
X125693061Y-74151459D01*
X125614430Y-74546763D01*
X125614430Y-75313237D01*
X125719900Y-75843472D01*
X126020254Y-76292983D01*
X126469765Y-76593337D01*
X127000000Y-76698807D01*
X127367004Y-76625806D01*
X128748599Y-78007401D01*
X128995160Y-78172148D01*
X129286000Y-78230000D01*
X134380187Y-78230000D01*
X134527017Y-78449746D01*
X134976528Y-78750100D01*
X134984072Y-78751601D01*
X134893183Y-78778501D01*
X134471202Y-79120056D01*
X134212050Y-79597097D01*
X134197867Y-79668725D01*
X134320521Y-79883000D01*
X135763000Y-79883000D01*
X135763000Y-79863000D01*
X136017000Y-79863000D01*
X136017000Y-79883000D01*
X136037000Y-79883000D01*
X136037000Y-80137000D01*
X136017000Y-80137000D01*
X136017000Y-81395570D01*
X136366250Y-81395570D01*
X136886817Y-81241499D01*
X137308798Y-80899944D01*
X137567950Y-80422903D01*
X137582133Y-80351275D01*
X137459480Y-80137002D01*
X137482200Y-80137002D01*
X138012842Y-80667644D01*
X137947400Y-80996641D01*
X137947400Y-81055359D01*
X138061474Y-81628848D01*
X138386330Y-82115029D01*
X138657172Y-82296000D01*
X138386330Y-82476971D01*
X138061474Y-82963152D01*
X137947400Y-83536641D01*
X137947400Y-83595359D01*
X138061474Y-84168848D01*
X138386330Y-84655029D01*
X138686000Y-84855262D01*
X138686000Y-87094643D01*
X138598559Y-87150910D01*
X138453569Y-87363110D01*
X138402560Y-87615000D01*
X138402560Y-88915000D01*
X138446838Y-89150317D01*
X138585910Y-89366441D01*
X138798110Y-89511431D01*
X139050000Y-89562440D01*
X139922638Y-89562440D01*
X142693198Y-92333000D01*
X141224000Y-92333000D01*
X141221756Y-92333446D01*
X141219508Y-92333011D01*
X141052425Y-92367129D01*
X140885325Y-92400367D01*
X140883423Y-92401638D01*
X140881180Y-92402096D01*
X140739986Y-92497479D01*
X140598210Y-92592210D01*
X140596937Y-92594115D01*
X140595042Y-92595395D01*
X140112798Y-93082560D01*
X138190000Y-93082560D01*
X137954683Y-93126838D01*
X137738559Y-93265910D01*
X137593569Y-93478110D01*
X137542560Y-93730000D01*
X137542560Y-95665861D01*
X135795420Y-97413000D01*
X134471449Y-97413000D01*
X135096915Y-97154563D01*
X135812052Y-96440673D01*
X136199559Y-95507454D01*
X136200440Y-94496979D01*
X135814563Y-93563085D01*
X135100673Y-92847948D01*
X134167454Y-92460441D01*
X133156979Y-92459560D01*
X132965000Y-92538884D01*
X132965000Y-89322226D01*
X133350000Y-89398807D01*
X133880235Y-89293337D01*
X134329746Y-88992983D01*
X134620000Y-88558588D01*
X134910254Y-88992983D01*
X135359765Y-89293337D01*
X135890000Y-89398807D01*
X136420235Y-89293337D01*
X136869746Y-88992983D01*
X137170100Y-88543472D01*
X137275570Y-88013237D01*
X137275570Y-87246763D01*
X137170100Y-86716528D01*
X136869746Y-86267017D01*
X136420235Y-85966663D01*
X135890000Y-85861193D01*
X135359765Y-85966663D01*
X134910254Y-86267017D01*
X134620000Y-86701412D01*
X134329746Y-86267017D01*
X133880235Y-85966663D01*
X133350000Y-85861193D01*
X132965000Y-85937774D01*
X132965000Y-85398096D01*
X133102148Y-85192839D01*
X133160000Y-84902000D01*
X133160000Y-84051140D01*
X133127490Y-83887703D01*
X133127490Y-83150710D01*
X133083212Y-82915393D01*
X132944140Y-82699269D01*
X132757082Y-82571458D01*
X132903000Y-82425540D01*
X132903000Y-81175860D01*
X133157000Y-81175860D01*
X133157000Y-82425540D01*
X133315750Y-82584290D01*
X133556359Y-82584290D01*
X133789748Y-82487617D01*
X133968377Y-82308989D01*
X134065050Y-82075600D01*
X134065050Y-81334610D01*
X133906300Y-81175860D01*
X133157000Y-81175860D01*
X132903000Y-81175860D01*
X132883000Y-81175860D01*
X132883000Y-80921860D01*
X132903000Y-80921860D01*
X132903000Y-79672180D01*
X133157000Y-79672180D01*
X133157000Y-80921860D01*
X133906300Y-80921860D01*
X134065050Y-80763110D01*
X134065050Y-80351275D01*
X134197867Y-80351275D01*
X134212050Y-80422903D01*
X134471202Y-80899944D01*
X134893183Y-81241499D01*
X135413750Y-81395570D01*
X135763000Y-81395570D01*
X135763000Y-80137000D01*
X134320521Y-80137000D01*
X134197867Y-80351275D01*
X134065050Y-80351275D01*
X134065050Y-80022120D01*
X133968377Y-79788731D01*
X133789748Y-79610103D01*
X133556359Y-79513430D01*
X133315750Y-79513430D01*
X133157000Y-79672180D01*
X132903000Y-79672180D01*
X132744250Y-79513430D01*
X132503641Y-79513430D01*
X132270252Y-79610103D01*
X132091623Y-79788731D01*
X132076566Y-79825082D01*
X131994140Y-79696989D01*
X131781940Y-79551999D01*
X131530050Y-79500990D01*
X130729950Y-79500990D01*
X130494633Y-79545268D01*
X130278509Y-79684340D01*
X130176797Y-79833201D01*
X130158377Y-79788731D01*
X129979748Y-79610103D01*
X129746359Y-79513430D01*
X129505750Y-79513430D01*
X129347000Y-79672180D01*
X129347000Y-80921860D01*
X129367000Y-80921860D01*
X129367000Y-81175860D01*
X129347000Y-81175860D01*
X129347000Y-82425540D01*
X129505750Y-82584290D01*
X129746359Y-82584290D01*
X129979748Y-82487617D01*
X130158377Y-82308989D01*
X130177350Y-82263183D01*
X130265860Y-82400731D01*
X130370000Y-82471887D01*
X130370000Y-82550198D01*
X130035320Y-82884878D01*
X129989833Y-82884838D01*
X129646057Y-83026883D01*
X129382808Y-83289673D01*
X129317490Y-83446975D01*
X129317490Y-83150710D01*
X129273212Y-82915393D01*
X129134140Y-82699269D01*
X128947082Y-82571458D01*
X129093000Y-82425540D01*
X129093000Y-81175860D01*
X129073000Y-81175860D01*
X129073000Y-80921860D01*
X129093000Y-80921860D01*
X129093000Y-79672180D01*
X128934250Y-79513430D01*
X128693641Y-79513430D01*
X128460252Y-79610103D01*
X128281623Y-79788731D01*
X128266566Y-79825082D01*
X128184140Y-79696989D01*
X127971940Y-79551999D01*
X127720050Y-79500990D01*
X126919950Y-79500990D01*
X126684633Y-79545268D01*
X126468509Y-79684340D01*
X126366797Y-79833201D01*
X126348377Y-79788731D01*
X126169748Y-79610103D01*
X125936359Y-79513430D01*
X125695750Y-79513430D01*
X125537000Y-79672180D01*
X125537000Y-80921860D01*
X125557000Y-80921860D01*
X125557000Y-81175860D01*
X125537000Y-81175860D01*
X125537000Y-82425540D01*
X125695750Y-82584290D01*
X125936359Y-82584290D01*
X126169748Y-82487617D01*
X126348377Y-82308989D01*
X126367350Y-82263183D01*
X126455860Y-82400731D01*
X126560000Y-82471887D01*
X126560000Y-82550198D01*
X126225320Y-82884878D01*
X126179833Y-82884838D01*
X125836057Y-83026883D01*
X125572808Y-83289673D01*
X125507490Y-83446975D01*
X125507490Y-83150710D01*
X125463212Y-82915393D01*
X125324140Y-82699269D01*
X125137082Y-82571458D01*
X125283000Y-82425540D01*
X125283000Y-81175860D01*
X125263000Y-81175860D01*
X125263000Y-80921860D01*
X125283000Y-80921860D01*
X125283000Y-79672180D01*
X125124250Y-79513430D01*
X124883641Y-79513430D01*
X124650252Y-79610103D01*
X124471623Y-79788731D01*
X124456566Y-79825082D01*
X124374140Y-79696989D01*
X124161940Y-79551999D01*
X123910050Y-79500990D01*
X123109950Y-79500990D01*
X122874633Y-79545268D01*
X122658509Y-79684340D01*
X122556797Y-79833201D01*
X122538377Y-79788731D01*
X122359748Y-79610103D01*
X122126359Y-79513430D01*
X121885750Y-79513430D01*
X121727000Y-79672180D01*
X121727000Y-80921860D01*
X121747000Y-80921860D01*
X121747000Y-81175860D01*
X121727000Y-81175860D01*
X121727000Y-82425540D01*
X121885750Y-82584290D01*
X122126359Y-82584290D01*
X122359748Y-82487617D01*
X122538377Y-82308989D01*
X122557350Y-82263183D01*
X122645860Y-82400731D01*
X122750000Y-82471887D01*
X122750000Y-85044637D01*
X122737633Y-84982465D01*
X122703835Y-84931883D01*
X122545790Y-84695350D01*
X122545787Y-84695348D01*
X121697490Y-83847050D01*
X121697490Y-83150710D01*
X121653212Y-82915393D01*
X121514140Y-82699269D01*
X121327082Y-82571458D01*
X121473000Y-82425540D01*
X121473000Y-81175860D01*
X121453000Y-81175860D01*
X121453000Y-80921860D01*
X121473000Y-80921860D01*
X121473000Y-79672180D01*
X121314250Y-79513430D01*
X121073641Y-79513430D01*
X120840252Y-79610103D01*
X120661623Y-79788731D01*
X120646566Y-79825082D01*
X120564140Y-79696989D01*
X120351940Y-79551999D01*
X120100050Y-79500990D01*
X119299950Y-79500990D01*
X119064633Y-79545268D01*
X118960000Y-79612597D01*
X118960000Y-79565750D01*
X118801250Y-79407000D01*
X117602000Y-79407000D01*
X117602000Y-79427000D01*
X117348000Y-79427000D01*
X117348000Y-79407000D01*
X116148750Y-79407000D01*
X115990000Y-79565750D01*
X115990000Y-80288860D01*
X115785000Y-80288860D01*
X115785000Y-79565750D01*
X115626250Y-79407000D01*
X114427000Y-79407000D01*
X114427000Y-79427000D01*
X114173000Y-79427000D01*
X114173000Y-79407000D01*
X112973750Y-79407000D01*
X112815000Y-79565750D01*
X112815000Y-80288860D01*
X112610000Y-80288860D01*
X112610000Y-79565750D01*
X112451250Y-79407000D01*
X111252000Y-79407000D01*
X111252000Y-79427000D01*
X110998000Y-79427000D01*
X110998000Y-79407000D01*
X109798750Y-79407000D01*
X109640000Y-79565750D01*
X109640000Y-80406309D01*
X109654330Y-80440905D01*
X109548739Y-80511459D01*
X108427638Y-81632560D01*
X107100000Y-81632560D01*
X106864683Y-81676838D01*
X106648559Y-81815910D01*
X106503569Y-82028110D01*
X106452560Y-82280000D01*
X106452560Y-84041758D01*
X106424000Y-84013198D01*
X106424000Y-79565750D01*
X106465000Y-79565750D01*
X106465000Y-80406309D01*
X106561673Y-80639698D01*
X106740301Y-80818327D01*
X106973690Y-80915000D01*
X107664250Y-80915000D01*
X107823000Y-80756250D01*
X107823000Y-79407000D01*
X108077000Y-79407000D01*
X108077000Y-80756250D01*
X108235750Y-80915000D01*
X108926310Y-80915000D01*
X109159699Y-80818327D01*
X109338327Y-80639698D01*
X109435000Y-80406309D01*
X109435000Y-79565750D01*
X109276250Y-79407000D01*
X108077000Y-79407000D01*
X107823000Y-79407000D01*
X106623750Y-79407000D01*
X106465000Y-79565750D01*
X106424000Y-79565750D01*
X106424000Y-78292802D01*
X106465000Y-78251802D01*
X106465000Y-78994250D01*
X106623750Y-79153000D01*
X107823000Y-79153000D01*
X107823000Y-77803750D01*
X108077000Y-77803750D01*
X108077000Y-79153000D01*
X109276250Y-79153000D01*
X109435000Y-78994250D01*
X109435000Y-78153691D01*
X109640000Y-78153691D01*
X109640000Y-78994250D01*
X109798750Y-79153000D01*
X110998000Y-79153000D01*
X110998000Y-77803750D01*
X111252000Y-77803750D01*
X111252000Y-79153000D01*
X112451250Y-79153000D01*
X112610000Y-78994250D01*
X112610000Y-78153691D01*
X112815000Y-78153691D01*
X112815000Y-78994250D01*
X112973750Y-79153000D01*
X114173000Y-79153000D01*
X114173000Y-77803750D01*
X114427000Y-77803750D01*
X114427000Y-79153000D01*
X115626250Y-79153000D01*
X115785000Y-78994250D01*
X115785000Y-78153691D01*
X115990000Y-78153691D01*
X115990000Y-78994250D01*
X116148750Y-79153000D01*
X117348000Y-79153000D01*
X117348000Y-77803750D01*
X117602000Y-77803750D01*
X117602000Y-79153000D01*
X118801250Y-79153000D01*
X118960000Y-78994250D01*
X118960000Y-78153691D01*
X118863327Y-77920302D01*
X118684699Y-77741673D01*
X118451310Y-77645000D01*
X117760750Y-77645000D01*
X117602000Y-77803750D01*
X117348000Y-77803750D01*
X117189250Y-77645000D01*
X116498690Y-77645000D01*
X116265301Y-77741673D01*
X116086673Y-77920302D01*
X115990000Y-78153691D01*
X115785000Y-78153691D01*
X115688327Y-77920302D01*
X115509699Y-77741673D01*
X115276310Y-77645000D01*
X114585750Y-77645000D01*
X114427000Y-77803750D01*
X114173000Y-77803750D01*
X114014250Y-77645000D01*
X113323690Y-77645000D01*
X113090301Y-77741673D01*
X112911673Y-77920302D01*
X112815000Y-78153691D01*
X112610000Y-78153691D01*
X112513327Y-77920302D01*
X112334699Y-77741673D01*
X112101310Y-77645000D01*
X111410750Y-77645000D01*
X111252000Y-77803750D01*
X110998000Y-77803750D01*
X110839250Y-77645000D01*
X110148690Y-77645000D01*
X109915301Y-77741673D01*
X109736673Y-77920302D01*
X109640000Y-78153691D01*
X109435000Y-78153691D01*
X109338327Y-77920302D01*
X109159699Y-77741673D01*
X108926310Y-77645000D01*
X108235750Y-77645000D01*
X108077000Y-77803750D01*
X107823000Y-77803750D01*
X107664250Y-77645000D01*
X107071802Y-77645000D01*
X108343680Y-76373122D01*
X108389167Y-76373162D01*
X108732943Y-76231117D01*
X108996192Y-75968327D01*
X109138838Y-75624799D01*
X109139162Y-75252833D01*
X108997117Y-74909057D01*
X108734327Y-74645808D01*
X108390799Y-74503162D01*
X108018833Y-74502838D01*
X107675057Y-74644883D01*
X107411808Y-74907673D01*
X107269162Y-75251201D01*
X107269121Y-75298077D01*
X105710000Y-76857198D01*
X105710000Y-74569931D01*
X106011347Y-73054955D01*
X106564430Y-72227206D01*
X106564430Y-72773237D01*
G36*
X151591740Y-80126542D02*
X151591740Y-85066130D01*
X150601680Y-85066130D01*
X150366363Y-85110408D01*
X150150239Y-85249480D01*
X150005249Y-85461680D01*
X149954240Y-85713570D01*
X149954240Y-87514430D01*
X149998518Y-87749747D01*
X150054380Y-87836558D01*
X149462599Y-88428339D01*
X149297852Y-88674901D01*
X149240000Y-88965740D01*
X149240000Y-89089573D01*
X149040559Y-89217910D01*
X148895569Y-89430110D01*
X148857000Y-89620569D01*
X148857000Y-89555690D01*
X148760327Y-89322301D01*
X148581698Y-89143673D01*
X148348309Y-89047000D01*
X147999750Y-89047000D01*
X147841000Y-89205750D01*
X147841000Y-90571000D01*
X147861000Y-90571000D01*
X147861000Y-90825000D01*
X147841000Y-90825000D01*
X147841000Y-90845000D01*
X147587000Y-90845000D01*
X147587000Y-90825000D01*
X146729750Y-90825000D01*
X146571000Y-90983750D01*
X146571000Y-91696000D01*
X144205802Y-91696000D01*
X142069505Y-89559703D01*
X142138838Y-89555690D01*
X146571000Y-89555690D01*
X146571000Y-90412250D01*
X146729750Y-90571000D01*
X147587000Y-90571000D01*
X147587000Y-89205750D01*
X147428250Y-89047000D01*
X147079691Y-89047000D01*
X146846302Y-89143673D01*
X146667673Y-89322301D01*
X146571000Y-89555690D01*
X142138838Y-89555690D01*
X142529428Y-89533083D01*
X142863729Y-89394611D01*
X142919410Y-89164016D01*
X142200000Y-88444605D01*
X142185858Y-88458748D01*
X142006252Y-88279142D01*
X142020395Y-88265000D01*
X142379605Y-88265000D01*
X143099016Y-88984410D01*
X143329611Y-88928729D01*
X143497622Y-88445922D01*
X143468083Y-87935572D01*
X143329611Y-87601271D01*
X143099016Y-87545590D01*
X142379605Y-88265000D01*
X142020395Y-88265000D01*
X141300984Y-87545590D01*
X141070389Y-87601271D01*
X140997440Y-87810902D01*
X140997440Y-87615000D01*
X140953162Y-87379683D01*
X140944347Y-87365984D01*
X141480590Y-87365984D01*
X142200000Y-88085395D01*
X142919410Y-87365984D01*
X142863729Y-87135389D01*
X142380922Y-86967378D01*
X141870572Y-86996917D01*
X141536271Y-87135389D01*
X141480590Y-87365984D01*
X140944347Y-87365984D01*
X140814090Y-87163559D01*
X140601890Y-87018569D01*
X140350000Y-86967560D01*
X140206000Y-86967560D01*
X140206000Y-86899750D01*
X143967200Y-86899750D01*
X143967200Y-87640740D01*
X144063873Y-87874129D01*
X144242502Y-88052757D01*
X144475891Y-88149430D01*
X146066510Y-88149430D01*
X146225260Y-87990680D01*
X146225260Y-86741000D01*
X146479260Y-86741000D01*
X146479260Y-87990680D01*
X146638010Y-88149430D01*
X148228629Y-88149430D01*
X148462018Y-88052757D01*
X148640647Y-87874129D01*
X148737320Y-87640740D01*
X148737320Y-86899750D01*
X148578570Y-86741000D01*
X146479260Y-86741000D01*
X146225260Y-86741000D01*
X144125950Y-86741000D01*
X143967200Y-86899750D01*
X140206000Y-86899750D01*
X140206000Y-86398633D01*
X140529201Y-86532838D01*
X140901167Y-86533162D01*
X141244943Y-86391117D01*
X141508192Y-86128327D01*
X141650838Y-85784799D01*
X141651010Y-85587260D01*
X143967200Y-85587260D01*
X143967200Y-86328250D01*
X144125950Y-86487000D01*
X146225260Y-86487000D01*
X146225260Y-85237320D01*
X146479260Y-85237320D01*
X146479260Y-86487000D01*
X148578570Y-86487000D01*
X148737320Y-86328250D01*
X148737320Y-85587260D01*
X148640647Y-85353871D01*
X148462018Y-85175243D01*
X148228629Y-85078570D01*
X146638010Y-85078570D01*
X146479260Y-85237320D01*
X146225260Y-85237320D01*
X146066510Y-85078570D01*
X144475891Y-85078570D01*
X144242502Y-85175243D01*
X144063873Y-85353871D01*
X143967200Y-85587260D01*
X141651010Y-85587260D01*
X141651162Y-85412833D01*
X141509117Y-85069057D01*
X141504668Y-85064600D01*
X141700250Y-85064600D01*
X141859000Y-84905850D01*
X141859000Y-83693000D01*
X142113000Y-83693000D01*
X142113000Y-84905850D01*
X142271750Y-85064600D01*
X142975910Y-85064600D01*
X143209299Y-84967927D01*
X143387927Y-84789298D01*
X143484600Y-84555909D01*
X143484600Y-83851750D01*
X143325850Y-83693000D01*
X142113000Y-83693000D01*
X141859000Y-83693000D01*
X141839000Y-83693000D01*
X141839000Y-83439000D01*
X141859000Y-83439000D01*
X141859000Y-83419000D01*
X142113000Y-83419000D01*
X142113000Y-83439000D01*
X143325850Y-83439000D01*
X143484600Y-83280250D01*
X143484600Y-82576091D01*
X143387927Y-82342702D01*
X143209299Y-82164073D01*
X143055474Y-82100356D01*
X143370526Y-81628848D01*
X143484600Y-81055359D01*
X143484600Y-80996641D01*
X143388995Y-80516000D01*
X144211198Y-80516000D01*
X145512599Y-81817401D01*
X145759160Y-81982148D01*
X145807414Y-81991746D01*
X146050000Y-82040000D01*
X146079454Y-82040000D01*
X145972041Y-82580000D01*
X146086115Y-83153489D01*
X146410971Y-83639670D01*
X146897152Y-83964526D01*
X147470641Y-84078600D01*
X147529359Y-84078600D01*
X148102848Y-83964526D01*
X148589029Y-83639670D01*
X148769992Y-83368839D01*
X149151510Y-83786821D01*
X149680973Y-84034968D01*
X149913000Y-83914469D01*
X149913000Y-82707000D01*
X150167000Y-82707000D01*
X150167000Y-83914469D01*
X150399027Y-84034968D01*
X150928490Y-83786821D01*
X151322688Y-83354947D01*
X151494958Y-82939026D01*
X151373817Y-82707000D01*
X150167000Y-82707000D01*
X149913000Y-82707000D01*
X149893000Y-82707000D01*
X149893000Y-82453000D01*
X149913000Y-82453000D01*
X149913000Y-82433000D01*
X150167000Y-82433000D01*
X150167000Y-82453000D01*
X151373817Y-82453000D01*
X151494958Y-82220974D01*
X151322688Y-81805053D01*
X150928490Y-81373179D01*
X150805772Y-81315664D01*
X151129029Y-81099670D01*
X151453885Y-80613489D01*
X151557546Y-80092348D01*
X151591740Y-80126542D01*
X151591740Y-80126542D01*
G37*
X151591740Y-80126542D02*
X151591740Y-85066130D01*
X150601680Y-85066130D01*
X150366363Y-85110408D01*
X150150239Y-85249480D01*
X150005249Y-85461680D01*
X149954240Y-85713570D01*
X149954240Y-87514430D01*
X149998518Y-87749747D01*
X150054380Y-87836558D01*
X149462599Y-88428339D01*
X149297852Y-88674901D01*
X149240000Y-88965740D01*
X149240000Y-89089573D01*
X149040559Y-89217910D01*
X148895569Y-89430110D01*
X148857000Y-89620569D01*
X148857000Y-89555690D01*
X148760327Y-89322301D01*
X148581698Y-89143673D01*
X148348309Y-89047000D01*
X147999750Y-89047000D01*
X147841000Y-89205750D01*
X147841000Y-90571000D01*
X147861000Y-90571000D01*
X147861000Y-90825000D01*
X147841000Y-90825000D01*
X147841000Y-90845000D01*
X147587000Y-90845000D01*
X147587000Y-90825000D01*
X146729750Y-90825000D01*
X146571000Y-90983750D01*
X146571000Y-91696000D01*
X144205802Y-91696000D01*
X142069505Y-89559703D01*
X142138838Y-89555690D01*
X146571000Y-89555690D01*
X146571000Y-90412250D01*
X146729750Y-90571000D01*
X147587000Y-90571000D01*
X147587000Y-89205750D01*
X147428250Y-89047000D01*
X147079691Y-89047000D01*
X146846302Y-89143673D01*
X146667673Y-89322301D01*
X146571000Y-89555690D01*
X142138838Y-89555690D01*
X142529428Y-89533083D01*
X142863729Y-89394611D01*
X142919410Y-89164016D01*
X142200000Y-88444605D01*
X142185858Y-88458748D01*
X142006252Y-88279142D01*
X142020395Y-88265000D01*
X142379605Y-88265000D01*
X143099016Y-88984410D01*
X143329611Y-88928729D01*
X143497622Y-88445922D01*
X143468083Y-87935572D01*
X143329611Y-87601271D01*
X143099016Y-87545590D01*
X142379605Y-88265000D01*
X142020395Y-88265000D01*
X141300984Y-87545590D01*
X141070389Y-87601271D01*
X140997440Y-87810902D01*
X140997440Y-87615000D01*
X140953162Y-87379683D01*
X140944347Y-87365984D01*
X141480590Y-87365984D01*
X142200000Y-88085395D01*
X142919410Y-87365984D01*
X142863729Y-87135389D01*
X142380922Y-86967378D01*
X141870572Y-86996917D01*
X141536271Y-87135389D01*
X141480590Y-87365984D01*
X140944347Y-87365984D01*
X140814090Y-87163559D01*
X140601890Y-87018569D01*
X140350000Y-86967560D01*
X140206000Y-86967560D01*
X140206000Y-86899750D01*
X143967200Y-86899750D01*
X143967200Y-87640740D01*
X144063873Y-87874129D01*
X144242502Y-88052757D01*
X144475891Y-88149430D01*
X146066510Y-88149430D01*
X146225260Y-87990680D01*
X146225260Y-86741000D01*
X146479260Y-86741000D01*
X146479260Y-87990680D01*
X146638010Y-88149430D01*
X148228629Y-88149430D01*
X148462018Y-88052757D01*
X148640647Y-87874129D01*
X148737320Y-87640740D01*
X148737320Y-86899750D01*
X148578570Y-86741000D01*
X146479260Y-86741000D01*
X146225260Y-86741000D01*
X144125950Y-86741000D01*
X143967200Y-86899750D01*
X140206000Y-86899750D01*
X140206000Y-86398633D01*
X140529201Y-86532838D01*
X140901167Y-86533162D01*
X141244943Y-86391117D01*
X141508192Y-86128327D01*
X141650838Y-85784799D01*
X141651010Y-85587260D01*
X143967200Y-85587260D01*
X143967200Y-86328250D01*
X144125950Y-86487000D01*
X146225260Y-86487000D01*
X146225260Y-85237320D01*
X146479260Y-85237320D01*
X146479260Y-86487000D01*
X148578570Y-86487000D01*
X148737320Y-86328250D01*
X148737320Y-85587260D01*
X148640647Y-85353871D01*
X148462018Y-85175243D01*
X148228629Y-85078570D01*
X146638010Y-85078570D01*
X146479260Y-85237320D01*
X146225260Y-85237320D01*
X146066510Y-85078570D01*
X144475891Y-85078570D01*
X144242502Y-85175243D01*
X144063873Y-85353871D01*
X143967200Y-85587260D01*
X141651010Y-85587260D01*
X141651162Y-85412833D01*
X141509117Y-85069057D01*
X141504668Y-85064600D01*
X141700250Y-85064600D01*
X141859000Y-84905850D01*
X141859000Y-83693000D01*
X142113000Y-83693000D01*
X142113000Y-84905850D01*
X142271750Y-85064600D01*
X142975910Y-85064600D01*
X143209299Y-84967927D01*
X143387927Y-84789298D01*
X143484600Y-84555909D01*
X143484600Y-83851750D01*
X143325850Y-83693000D01*
X142113000Y-83693000D01*
X141859000Y-83693000D01*
X141839000Y-83693000D01*
X141839000Y-83439000D01*
X141859000Y-83439000D01*
X141859000Y-83419000D01*
X142113000Y-83419000D01*
X142113000Y-83439000D01*
X143325850Y-83439000D01*
X143484600Y-83280250D01*
X143484600Y-82576091D01*
X143387927Y-82342702D01*
X143209299Y-82164073D01*
X143055474Y-82100356D01*
X143370526Y-81628848D01*
X143484600Y-81055359D01*
X143484600Y-80996641D01*
X143388995Y-80516000D01*
X144211198Y-80516000D01*
X145512599Y-81817401D01*
X145759160Y-81982148D01*
X145807414Y-81991746D01*
X146050000Y-82040000D01*
X146079454Y-82040000D01*
X145972041Y-82580000D01*
X146086115Y-83153489D01*
X146410971Y-83639670D01*
X146897152Y-83964526D01*
X147470641Y-84078600D01*
X147529359Y-84078600D01*
X148102848Y-83964526D01*
X148589029Y-83639670D01*
X148769992Y-83368839D01*
X149151510Y-83786821D01*
X149680973Y-84034968D01*
X149913000Y-83914469D01*
X149913000Y-82707000D01*
X150167000Y-82707000D01*
X150167000Y-83914469D01*
X150399027Y-84034968D01*
X150928490Y-83786821D01*
X151322688Y-83354947D01*
X151494958Y-82939026D01*
X151373817Y-82707000D01*
X150167000Y-82707000D01*
X149913000Y-82707000D01*
X149893000Y-82707000D01*
X149893000Y-82453000D01*
X149913000Y-82453000D01*
X149913000Y-82433000D01*
X150167000Y-82433000D01*
X150167000Y-82453000D01*
X151373817Y-82453000D01*
X151494958Y-82220974D01*
X151322688Y-81805053D01*
X150928490Y-81373179D01*
X150805772Y-81315664D01*
X151129029Y-81099670D01*
X151453885Y-80613489D01*
X151557546Y-80092348D01*
X151591740Y-80126542D01*
G36*
X116173559Y-81815910D02*
X116028569Y-82028110D01*
X115977560Y-82280000D01*
X115977560Y-84280000D01*
X116021838Y-84515317D01*
X116160910Y-84731441D01*
X116373110Y-84876431D01*
X116625000Y-84927440D01*
X116894194Y-84927440D01*
X116937599Y-84992401D01*
X117809878Y-85864680D01*
X117809838Y-85910167D01*
X117813935Y-85920084D01*
X117579765Y-85966663D01*
X117130254Y-86267017D01*
X116829900Y-86716528D01*
X116828399Y-86724072D01*
X116801499Y-86633183D01*
X116459944Y-86211202D01*
X115982903Y-85952050D01*
X115911275Y-85937867D01*
X115697000Y-86060521D01*
X115697000Y-87503000D01*
X115717000Y-87503000D01*
X115717000Y-87757000D01*
X115697000Y-87757000D01*
X115697000Y-89199479D01*
X115911275Y-89322133D01*
X115982903Y-89307950D01*
X116459944Y-89048798D01*
X116801499Y-88626817D01*
X116828399Y-88535928D01*
X116829900Y-88543472D01*
X117130254Y-88992983D01*
X117579765Y-89293337D01*
X118110000Y-89398807D01*
X118457085Y-89329768D01*
X118343057Y-89376883D01*
X118309882Y-89410000D01*
X115122802Y-89410000D01*
X115060000Y-89347198D01*
X115060000Y-89255202D01*
X115157097Y-89307950D01*
X115228725Y-89322133D01*
X115443000Y-89199479D01*
X115443000Y-87757000D01*
X115423000Y-87757000D01*
X115423000Y-87503000D01*
X115443000Y-87503000D01*
X115443000Y-86060521D01*
X115228725Y-85937867D01*
X115157097Y-85952050D01*
X115060000Y-86004798D01*
X115060000Y-84927440D01*
X115150000Y-84927440D01*
X115385317Y-84883162D01*
X115601441Y-84744090D01*
X115746431Y-84531890D01*
X115797440Y-84280000D01*
X115797440Y-82280000D01*
X115753162Y-82044683D01*
X115614090Y-81828559D01*
X115585260Y-81808860D01*
X116184515Y-81808860D01*
X116173559Y-81815910D01*
X116173559Y-81815910D01*
G37*
X116173559Y-81815910D02*
X116028569Y-82028110D01*
X115977560Y-82280000D01*
X115977560Y-84280000D01*
X116021838Y-84515317D01*
X116160910Y-84731441D01*
X116373110Y-84876431D01*
X116625000Y-84927440D01*
X116894194Y-84927440D01*
X116937599Y-84992401D01*
X117809878Y-85864680D01*
X117809838Y-85910167D01*
X117813935Y-85920084D01*
X117579765Y-85966663D01*
X117130254Y-86267017D01*
X116829900Y-86716528D01*
X116828399Y-86724072D01*
X116801499Y-86633183D01*
X116459944Y-86211202D01*
X115982903Y-85952050D01*
X115911275Y-85937867D01*
X115697000Y-86060521D01*
X115697000Y-87503000D01*
X115717000Y-87503000D01*
X115717000Y-87757000D01*
X115697000Y-87757000D01*
X115697000Y-89199479D01*
X115911275Y-89322133D01*
X115982903Y-89307950D01*
X116459944Y-89048798D01*
X116801499Y-88626817D01*
X116828399Y-88535928D01*
X116829900Y-88543472D01*
X117130254Y-88992983D01*
X117579765Y-89293337D01*
X118110000Y-89398807D01*
X118457085Y-89329768D01*
X118343057Y-89376883D01*
X118309882Y-89410000D01*
X115122802Y-89410000D01*
X115060000Y-89347198D01*
X115060000Y-89255202D01*
X115157097Y-89307950D01*
X115228725Y-89322133D01*
X115443000Y-89199479D01*
X115443000Y-87757000D01*
X115423000Y-87757000D01*
X115423000Y-87503000D01*
X115443000Y-87503000D01*
X115443000Y-86060521D01*
X115228725Y-85937867D01*
X115157097Y-85952050D01*
X115060000Y-86004798D01*
X115060000Y-84927440D01*
X115150000Y-84927440D01*
X115385317Y-84883162D01*
X115601441Y-84744090D01*
X115746431Y-84531890D01*
X115797440Y-84280000D01*
X115797440Y-82280000D01*
X115753162Y-82044683D01*
X115614090Y-81828559D01*
X115585260Y-81808860D01*
X116184515Y-81808860D01*
X116173559Y-81815910D01*
M02*
