G04 #@! TF.FileFunction,Soldermask,Top*
%FSLAX46Y46*%
G04 Gerber Fmt 4.6, Leading zero omitted, Abs format (unit mm)*
G04 Created by KiCad (PCBNEW 4.0.2-stable) date 01.11.2016 20:23:11*
%MOMM*%
G01*
G04 APERTURE LIST*
%ADD10C,0.100000*%
%ADD11O,1.901140X2.599640*%
%ADD12O,2.599640X1.901140*%
%ADD13O,2.127200X2.127200*%
%ADD14R,2.127200X2.127200*%
%ADD15R,1.700000X1.700000*%
%ADD16C,1.700000*%
%ADD17C,4.210000*%
%ADD18R,4.210000X4.210000*%
%ADD19R,2.940000X2.940000*%
%ADD20C,2.940000*%
%ADD21C,3.100000*%
G04 APERTURE END LIST*
D10*
D11*
X127000000Y-74930000D03*
X129540000Y-74930000D03*
X107950000Y-87630000D03*
X110490000Y-87630000D03*
X113030000Y-87630000D03*
X115570000Y-87630000D03*
X118110000Y-87630000D03*
X120650000Y-87630000D03*
X123190000Y-87630000D03*
X125730000Y-87630000D03*
X128270000Y-87630000D03*
X130810000Y-87630000D03*
X133350000Y-87630000D03*
X135890000Y-87630000D03*
X135890000Y-72390000D03*
X133350000Y-72390000D03*
X130810000Y-72390000D03*
X128270000Y-72390000D03*
X125730000Y-72390000D03*
X123190000Y-72390000D03*
X120650000Y-72390000D03*
X118110000Y-72390000D03*
X115570000Y-72390000D03*
X113030000Y-72390000D03*
X110490000Y-72390000D03*
X107950000Y-72390000D03*
X119380000Y-74930000D03*
X116840000Y-74930000D03*
D12*
X135890000Y-74930000D03*
X135890000Y-77470000D03*
X135890000Y-80010000D03*
D13*
X141986000Y-75946000D03*
X139446000Y-75946000D03*
X141986000Y-78486000D03*
X139446000Y-78486000D03*
X141986000Y-81026000D03*
X139446000Y-81026000D03*
D14*
X141986000Y-83566000D03*
D13*
X139446000Y-83566000D03*
D15*
X139700000Y-88265000D03*
D16*
X142200000Y-88265000D03*
D17*
X118420000Y-95000000D03*
X123500000Y-95000000D03*
D18*
X113340000Y-95000000D03*
D17*
X128580000Y-95000000D03*
X133660000Y-95000000D03*
D19*
X139460000Y-95000000D03*
D20*
X144540000Y-95000000D03*
D14*
X147500000Y-77500000D03*
D13*
X150040000Y-77500000D03*
X147500000Y-80040000D03*
X150040000Y-80040000D03*
X147500000Y-82580000D03*
X150040000Y-82580000D03*
D21*
X108000000Y-94000000D03*
X149000000Y-73000000D03*
M02*
