G04 #@! TF.FileFunction,Copper,L1,Top,Signal*
%FSLAX46Y46*%
G04 Gerber Fmt 4.6, Leading zero omitted, Abs format (unit mm)*
G04 Created by KiCad (PCBNEW 4.0.2-stable) date 01.11.2016 20:23:11*
%MOMM*%
G01*
G04 APERTURE LIST*
%ADD10C,0.100000*%
%ADD11O,1.501140X2.199640*%
%ADD12O,2.199640X1.501140*%
%ADD13O,1.727200X1.727200*%
%ADD14R,1.727200X1.727200*%
%ADD15R,1.300000X1.300000*%
%ADD16C,1.300000*%
%ADD17C,3.810000*%
%ADD18R,3.810000X3.810000*%
%ADD19R,2.540000X2.540000*%
%ADD20C,2.540000*%
%ADD21C,0.600000*%
%ADD22C,0.250000*%
G04 APERTURE END LIST*
D10*
D11*
X127000000Y-74930000D03*
X129540000Y-74930000D03*
X107950000Y-87630000D03*
X110490000Y-87630000D03*
X113030000Y-87630000D03*
X115570000Y-87630000D03*
X118110000Y-87630000D03*
X120650000Y-87630000D03*
X123190000Y-87630000D03*
X125730000Y-87630000D03*
X128270000Y-87630000D03*
X130810000Y-87630000D03*
X133350000Y-87630000D03*
X135890000Y-87630000D03*
X135890000Y-72390000D03*
X133350000Y-72390000D03*
X130810000Y-72390000D03*
X128270000Y-72390000D03*
X125730000Y-72390000D03*
X123190000Y-72390000D03*
X120650000Y-72390000D03*
X118110000Y-72390000D03*
X115570000Y-72390000D03*
X113030000Y-72390000D03*
X110490000Y-72390000D03*
X107950000Y-72390000D03*
X119380000Y-74930000D03*
X116840000Y-74930000D03*
D12*
X135890000Y-74930000D03*
X135890000Y-77470000D03*
X135890000Y-80010000D03*
D13*
X141986000Y-75946000D03*
X139446000Y-75946000D03*
X141986000Y-78486000D03*
X139446000Y-78486000D03*
X141986000Y-81026000D03*
X139446000Y-81026000D03*
D14*
X141986000Y-83566000D03*
D13*
X139446000Y-83566000D03*
D15*
X139700000Y-88265000D03*
D16*
X142200000Y-88265000D03*
D17*
X118420000Y-95000000D03*
X123500000Y-95000000D03*
D18*
X113340000Y-95000000D03*
D17*
X128580000Y-95000000D03*
X133660000Y-95000000D03*
D19*
X139460000Y-95000000D03*
D20*
X144540000Y-95000000D03*
D14*
X147500000Y-77500000D03*
D13*
X150040000Y-77500000D03*
X147500000Y-80040000D03*
X150040000Y-80040000D03*
X147500000Y-82580000D03*
X150040000Y-82580000D03*
D21*
X133350000Y-76200000D03*
X138430000Y-77216000D03*
X118618000Y-91694000D03*
X112268000Y-75438000D03*
X108204000Y-75438000D03*
X124206000Y-90170000D03*
X118872000Y-90170000D03*
X126365000Y-83820000D03*
X112395000Y-85725000D03*
X130175000Y-83820000D03*
X118745000Y-85725000D03*
X140716000Y-85598000D03*
D22*
X115570000Y-87630000D02*
X115570000Y-89408000D01*
X108458000Y-74422000D02*
X110490000Y-72390000D01*
X107950000Y-74422000D02*
X108458000Y-74422000D01*
X105664000Y-76708000D02*
X107950000Y-74422000D01*
X105664000Y-88392000D02*
X105664000Y-76708000D01*
X107188000Y-89916000D02*
X105664000Y-88392000D01*
X115062000Y-89916000D02*
X107188000Y-89916000D01*
X115570000Y-89408000D02*
X115062000Y-89916000D01*
X144540000Y-95000000D02*
X146808000Y-95000000D01*
X150040000Y-91768000D02*
X150040000Y-82580000D01*
X146808000Y-95000000D02*
X150040000Y-91768000D01*
X141986000Y-83566000D02*
X141478000Y-83566000D01*
X141478000Y-83566000D02*
X140208000Y-82296000D01*
X140208000Y-82296000D02*
X138176000Y-82296000D01*
X138176000Y-82296000D02*
X135890000Y-80010000D01*
X141986000Y-75946000D02*
X136652000Y-70612000D01*
X132588000Y-70612000D02*
X130810000Y-72390000D01*
X136652000Y-70612000D02*
X132588000Y-70612000D01*
X141986000Y-75946000D02*
X145946000Y-75946000D01*
X145946000Y-75946000D02*
X147500000Y-77500000D01*
X137414000Y-76200000D02*
X133350000Y-76200000D01*
X138430000Y-77216000D02*
X137414000Y-76200000D01*
X139446000Y-78486000D02*
X137922000Y-78486000D01*
X131826000Y-73914000D02*
X133350000Y-72390000D01*
X131826000Y-77470000D02*
X131826000Y-73914000D01*
X133096000Y-78740000D02*
X131826000Y-77470000D01*
X137668000Y-78740000D02*
X133096000Y-78740000D01*
X137922000Y-78486000D02*
X137668000Y-78740000D01*
X145542000Y-84538000D02*
X147500000Y-82580000D01*
X145542000Y-88392000D02*
X145542000Y-84538000D01*
X142240000Y-91694000D02*
X145542000Y-88392000D01*
X118618000Y-91694000D02*
X142240000Y-91694000D01*
X108204000Y-75438000D02*
X112268000Y-75438000D01*
X118872000Y-90170000D02*
X124206000Y-90170000D01*
X114300000Y-83820000D02*
X126365000Y-83820000D01*
X112395000Y-85725000D02*
X114300000Y-83820000D01*
X130175000Y-83820000D02*
X132080000Y-83820000D01*
X132080000Y-83820000D02*
X135890000Y-87630000D01*
X129540000Y-83820000D02*
X130175000Y-83820000D01*
X127635000Y-85725000D02*
X129540000Y-83820000D01*
X118745000Y-85725000D02*
X127635000Y-85725000D01*
X140716000Y-85598000D02*
X139700000Y-86614000D01*
X139700000Y-86614000D02*
X138684000Y-86614000D01*
X138684000Y-86614000D02*
X137668000Y-87630000D01*
X137668000Y-87630000D02*
X137668000Y-88646000D01*
X137668000Y-88646000D02*
X136144000Y-90170000D01*
X136144000Y-90170000D02*
X125730000Y-90170000D01*
X125730000Y-90170000D02*
X123190000Y-87630000D01*
M02*
